<svg width="63" height="37" viewBox="0 0 63 37" fill="none" xmlns="http://www.w3.org/2000/svg">
<path d="M18.9372 3.76231L5.88069 13.1443C3.13946 15.1141 2.51406 18.9331 4.48384 21.6744C6.45361 24.4156 10.2727 25.041 13.0139 23.0712L26.0703 13.6892C28.8116 11.7194 29.437 7.90039 27.4672 5.15916C25.4974 2.41792 21.6784 1.79254 18.9372 3.76231Z" fill="#EA4335" stroke="#1E1E1E" stroke-width="1.5" stroke-miterlimit="10"/>
<path d="M12.9897 13.1192C10.2485 11.1494 6.42945 11.7748 4.45967 14.516C2.48989 17.2573 3.11528 21.0763 5.85651 23.0461L18.913 32.4281C21.6542 34.3979 25.4733 33.7725 27.443 31.0313C29.4128 28.29 28.7874 24.471 26.0462 22.5012L12.9897 13.1192Z" fill="#4285F4" stroke="#1E1E1E" stroke-width="1.5" stroke-miterlimit="10"/>
<path d="M50.4865 13.1481L37.43 22.5301C34.6888 24.4999 34.0634 28.3189 36.0332 31.0601C38.0029 33.8014 41.822 34.4267 44.5632 32.457L57.6197 23.075C60.3609 21.1052 60.9863 17.2861 59.0165 14.5449C57.0467 11.8037 53.2277 11.1783 50.4865 13.1481Z" fill="#F9AB00" stroke="#1E1E1E" stroke-width="1.5" stroke-miterlimit="10"/>
<path d="M44.5354 3.73443C41.7941 1.76466 37.9751 2.39003 36.0053 5.13127C34.0355 7.87251 34.6609 11.6915 37.4022 13.6613L50.4586 23.0433C53.1999 25.0131 57.0189 24.3877 58.9887 21.6465C60.9585 18.9053 60.3331 15.0862 57.5918 13.1165L44.5354 3.73443Z" fill="#34A853" stroke="#1E1E1E" stroke-width="1.5" stroke-miterlimit="10"/>
</svg>
