<svg width="70" height="34" viewBox="0 0 70 34" fill="none" xmlns="http://www.w3.org/2000/svg">
<path fill-rule="evenodd" clip-rule="evenodd" d="M49.7854 18.8598L60.8435 25.2474L47.4473 32.9817C44.8021 34.5089 41.4198 33.6026 39.8926 30.9575C38.3654 28.3123 39.2717 24.9299 41.9169 23.4028L49.7854 18.8598ZM47.4473 0.847328L66.9809 12.125C69.626 13.6522 70.5323 17.0346 69.0051 19.6797C67.4779 22.3249 64.0956 23.2312 61.4504 21.704L41.9169 10.4263C39.2717 8.89911 38.3654 5.51676 39.8926 2.8716C41.4198 0.226443 44.8021 -0.679855 47.4473 0.847328ZM9.27653 12.125L28.8101 23.4028C31.4553 24.9299 32.3616 28.3123 30.8344 30.9575C29.3072 33.6026 25.9249 34.5089 23.2797 32.9817L3.74611 21.704C1.10095 20.1768 0.194656 16.7945 1.72184 14.1493C3.24902 11.5042 6.63137 10.5979 9.27653 12.125ZM30.8344 2.8716C32.3616 5.51676 31.4553 8.89911 28.8101 10.4263L20.664 15.1294L9.63757 8.72361L23.2797 0.847328C25.9249 -0.679855 29.3072 0.226443 30.8344 2.8716Z" fill="black"/>
</svg>
