<svg width="43" height="39" viewBox="0 0 43 39" fill="none" xmlns="http://www.w3.org/2000/svg">
<path d="M21.4396 37.805C32.5213 37.805 41.5047 29.625 41.5047 19.5344C41.5047 9.44373 32.5213 1.26367 21.4396 1.26367C10.358 1.26367 1.37451 9.44373 1.37451 19.5344C1.37451 29.625 10.358 37.805 21.4396 37.805Z" stroke="#1E1E1E" stroke-width="1.5" stroke-linejoin="round"/>
<path d="M21.4398 37.805C26.2232 37.805 30.101 29.625 30.101 19.5344C30.101 9.44373 26.2232 1.26367 21.4398 1.26367C16.6563 1.26367 12.7786 9.44373 12.7786 19.5344C12.7786 29.625 16.6563 37.805 21.4398 37.805Z" stroke="#1E1E1E" stroke-width="1.5" stroke-linejoin="round"/>
<path d="M2.7832 12.7637H40.0816" stroke="#1E1E1E" stroke-width="1.5" stroke-linejoin="round"/>
<path d="M2.7832 26.2734H40.0816" stroke="#1E1E1E" stroke-width="1.5" stroke-linejoin="round"/>
</svg>
