<svg width="30" height="30" viewBox="0 0 30 30" fill="none" xmlns="http://www.w3.org/2000/svg">
<g clip-path="url(#clip0_2462_230)">
<path d="M27 14.5C27 7.59644 21.4036 2 14.5 2C7.59644 2 2 7.59644 2 14.5C2 20.739 6.57104 25.9104 12.5469 26.8481V18.1133H9.37305V14.5H12.5469V11.7461C12.5469 8.61328 14.4131 6.88281 17.2683 6.88281C18.636 6.88281 20.0664 7.12695 20.0664 7.12695V10.2031H18.4902C16.9375 10.2031 16.4531 11.1667 16.4531 12.1553V14.5H19.9199L19.3657 18.1133H16.4531V26.8481C22.429 25.9104 27 20.7393 27 14.5Z" fill="#5F6368"/>
</g>
<defs>
<clipPath id="clip0_2462_230">
<rect width="25" height="25" fill="white" transform="translate(2 2)"/>
</clipPath>
</defs>
</svg>
