<svg width="30" height="30" viewBox="0 0 30 30" fill="none" xmlns="http://www.w3.org/2000/svg">
<path fill-rule="evenodd" clip-rule="evenodd" d="M24.1559 23.8028H20.3895V18.0014C20.3895 16.6181 20.3627 14.8382 18.4304 14.8382C16.4685 14.8382 16.1692 16.3444 16.1692 17.9014V23.8028H12.4042V11.8729H16.0174V13.5028H16.0696C16.5723 12.5646 17.8028 11.5757 19.6363 11.5757C23.4507 11.5757 24.1559 14.0458 24.1559 17.259V23.8028ZM8.15419 10.241C6.94273 10.241 5.96707 9.27778 5.96707 8.09097C5.96707 6.90556 6.94273 5.94167 8.15419 5.94167C9.36001 5.94167 10.3392 6.90556 10.3392 8.09097C10.3392 9.27778 9.36001 10.241 8.15419 10.241ZM6.2664 11.8729H10.0399V23.8028H6.2664V11.8729ZM25.648 2.5H4.3437C3.32637 2.5 2.5 3.30694 2.5 4.30139V25.6958C2.5 26.6917 3.32637 27.5 4.3437 27.5H25.648C26.6674 27.5 27.5 26.6917 27.5 25.6958V4.30139C27.5 3.30694 26.6674 2.5 25.648 2.5Z" fill="#5F6368"/>
</svg>
