<svg width="24" height="24" viewBox="0 0 24 24" fill="none" xmlns="http://www.w3.org/2000/svg">
<path d="M2.50983 21.715C2.52393 21.6934 2.53598 21.6701 2.55262 21.6508C3.97579 19.9955 5.39928 18.3404 6.82293 16.6854C7.835 15.5087 8.84723 14.3319 9.8593 13.1552C9.87641 13.1354 9.89274 13.1149 9.91461 13.0886C7.44497 9.49376 4.97597 5.89954 2.5 2.29533C2.52916 2.29121 2.54596 2.28772 2.56276 2.28677C2.58384 2.2855 2.60492 2.28645 2.62615 2.28645C4.43174 2.28645 6.23734 2.28645 8.04293 2.28645C8.05878 2.28645 8.07494 2.28851 8.09031 2.28614C8.14198 2.27837 8.17082 2.30341 8.19919 2.34493C8.53264 2.83306 8.86799 3.31992 9.2027 3.80709C10.4758 5.66039 11.7489 7.51368 13.0221 9.36682C13.034 9.38409 13.0469 9.40058 13.0633 9.42308C13.083 9.40295 13.1014 9.38584 13.1177 9.36698C13.9337 8.41846 14.7493 7.46963 15.5653 6.52111C16.7271 5.1702 17.8891 3.81945 19.0511 2.46871C19.0855 2.42861 19.1231 2.39089 19.1537 2.3481C19.1879 2.3004 19.2288 2.28455 19.2877 2.28519C19.5966 2.2882 19.9053 2.28661 20.2142 2.28661C20.4069 2.28661 20.5997 2.28661 20.7924 2.28677C20.8174 2.28677 20.8426 2.28915 20.8854 2.29121C18.5223 5.03866 16.1702 7.77344 13.8126 10.5144C13.8298 10.5404 13.8462 10.5664 13.8637 10.5917C14.7124 11.8273 15.5612 13.0628 16.4099 14.2983C18.0864 16.739 19.763 19.1794 21.4398 21.6199C21.4586 21.6473 21.4799 21.6728 21.5 21.6993C21.4973 21.7045 21.4949 21.7142 21.4921 21.7145C21.471 21.7158 21.4499 21.7151 21.4288 21.7151H15.83C15.8181 21.6923 15.8083 21.6679 15.7938 21.6468C14.1 19.1804 12.4058 16.7141 10.7115 14.2479C10.6969 14.2267 10.6802 14.2067 10.6609 14.1812C10.6341 14.2115 10.6111 14.2365 10.5891 14.2622C9.69764 15.2987 8.80602 16.3351 7.91456 17.3716C6.69266 18.7923 5.47076 20.2129 4.24901 21.6338C4.22698 21.6594 4.20876 21.688 4.18863 21.7151H2.50983V21.715ZM4.78833 3.55447C4.81179 3.5914 4.82589 3.6158 4.84206 3.63878C5.02479 3.9006 5.20799 4.16209 5.39088 4.42391C8.48842 8.85571 11.5861 13.2875 14.6837 17.7193C15.3185 18.6277 15.9537 19.536 16.588 20.4449C16.6164 20.4856 16.6424 20.5126 16.7005 20.5124C17.5108 20.5099 18.3212 20.5107 19.1315 20.5105C19.1508 20.5105 19.17 20.5069 19.1993 20.5039C19.1724 20.4647 19.1521 20.4344 19.1312 20.4047C17.1189 17.5258 15.1067 14.647 13.0946 11.7681C11.1972 9.05366 9.29985 6.33933 7.40393 3.62389C7.36811 3.5727 7.33134 3.55305 7.2689 3.5532C6.47443 3.55526 5.67995 3.55463 4.88548 3.55463H4.78833V3.55447Z" fill="#5F6368"/>
</svg>
