<svg width="128" height="77" viewBox="0 0 128 77" fill="none" xmlns="http://www.w3.org/2000/svg">
<path d="M38.2457 9.17317L11.9771 28.0491C6.46191 32.0122 5.20365 39.6958 9.1667 45.2109C13.1298 50.7261 20.8134 51.9843 26.3285 48.0213L52.5972 29.1454C58.1124 25.1823 59.3706 17.4987 55.4076 11.9835C51.4445 6.46835 43.7609 5.21012 38.2457 9.17317Z" fill="#EA4335"/>
<path d="M54.2773 12.7955C50.7627 7.90451 43.9485 6.78902 39.0575 10.3036L12.7889 29.1795C7.89795 32.6941 6.78215 39.5078 10.2966 44.3988C13.8111 49.2898 20.6253 50.406 25.5163 46.8916L51.7849 28.0156C56.6759 24.5011 57.7919 17.6865 54.2773 12.7955ZM56.5372 11.1715C60.9488 17.3108 59.5481 25.864 53.4088 30.2756L27.1402 49.1515C21.0009 53.5629 12.4477 52.1624 8.03616 46.0231C3.62472 39.8838 5.02539 31.3306 11.1646 26.919L37.4332 8.04312C43.5725 3.6316 52.1257 5.03229 56.5372 11.1715Z" fill="#1E1E1E"/>
<path d="M26.2799 27.999C20.7648 24.0359 13.0812 25.2941 9.11813 30.8093C5.15508 36.3245 6.41331 44.0081 11.9285 47.9711L38.1971 66.8471C43.7123 70.8101 51.3959 69.5519 55.359 64.0367C59.322 58.5215 58.0638 50.838 52.5486 46.8749L26.2799 27.999Z" fill="#4285F4"/>
<path d="M25.4679 29.1288C20.5769 25.6143 13.7628 26.7306 10.2483 31.6216C6.73382 36.5126 7.84961 43.3263 12.7405 46.8409L39.0091 65.7168C43.9001 69.2313 50.7144 68.1159 54.229 63.2249C57.7435 58.3339 56.6276 51.5193 51.7366 48.0047L25.4679 29.1288ZM53.3605 45.7448C59.4998 50.1563 60.9004 58.7095 56.4889 64.8489C52.0774 70.9881 43.5241 72.3888 37.3849 67.9773L11.1162 49.1013C4.97703 44.6898 3.5764 36.1366 7.98782 29.9973C12.3993 23.858 20.9526 22.4574 27.0919 26.8689L53.3605 45.7448Z" fill="#1E1E1E"/>
<path d="M101.721 28.0579L75.4519 46.9339C69.9368 50.8969 68.6785 58.5805 72.6416 64.0957C76.6046 69.6109 84.2882 70.8691 89.8034 66.9061L116.072 48.0301C121.587 44.0671 122.845 36.3834 118.882 30.8683C114.919 25.3531 107.236 24.0949 101.721 28.0579Z" fill="#F9AB00"/>
<path d="M117.752 31.6802C114.238 26.7893 107.423 25.6738 102.532 29.1883L76.2637 48.0643C71.3728 51.5788 70.257 58.3926 73.7715 63.2836C77.286 68.1746 84.1001 69.2908 88.9911 65.7763L115.26 46.9004C120.151 43.3858 121.267 36.5713 117.752 31.6802ZM120.012 30.0563C124.424 36.1956 123.023 44.7488 116.884 49.1603L90.6151 68.0363C84.4758 72.4477 75.9225 71.0471 71.511 64.9079C67.0996 58.7686 68.5002 50.2153 74.6394 45.8038L100.908 26.9279C107.047 22.5164 115.601 23.9171 120.012 30.0563Z" fill="#1E1E1E"/>
<path d="M89.7472 9.11799C84.2321 5.15494 76.5485 6.41315 72.5854 11.9283C68.6224 17.4435 69.8806 25.1271 75.3958 29.0902L101.664 47.9661C107.18 51.9292 114.863 50.6709 118.826 45.1557C122.789 39.6406 121.531 31.957 116.016 27.9939L89.7472 9.11799Z" fill="#34A853"/>
<path d="M88.9352 10.2477C84.0442 6.73323 77.2301 7.84949 73.7156 12.7405C70.2011 17.6315 71.3169 24.4452 76.2078 27.9598L102.476 46.8357C107.367 50.3502 114.182 49.2348 117.696 44.3438C121.211 39.4528 120.095 32.6382 115.204 29.1236L88.9352 10.2477ZM116.828 26.8637C122.967 31.2752 124.368 39.8284 119.956 45.9678C115.545 52.107 106.991 53.5077 100.852 49.0962L74.5835 30.2202C68.4443 25.8087 67.0437 17.2555 71.4551 11.1162C75.8666 4.97691 84.4199 3.57632 90.5592 7.98778L116.828 26.8637Z" fill="#1E1E1E"/>
</svg>
