<svg width="1023" height="92" viewBox="0 0 1023 92" fill="none" xmlns="http://www.w3.org/2000/svg">
<path d="M973.24 90.0019V21.0764H982.923V27.6272H983.493C984.379 26.2347 985.55 24.9372 987.006 23.7347C988.525 22.4688 990.297 21.4561 992.322 20.6966C994.348 19.9371 996.594 19.5574 999.063 19.5574C1003.49 19.5574 1007.45 20.665 1010.93 22.8802C1014.41 25.0955 1017.16 28.1335 1019.19 31.9943C1021.28 35.8552 1022.32 40.2857 1022.32 45.2858C1022.32 50.2859 1021.28 54.7163 1019.19 58.5772C1017.16 62.438 1014.41 65.4761 1010.93 67.6913C1007.45 69.9065 1003.49 71.0141 999.063 71.0141C995.392 71.0141 992.196 70.1913 989.474 68.5457C986.752 66.9001 984.759 65.0647 983.493 63.0393H982.923L983.493 69.7799V90.0019H973.24ZM997.544 61.6152C1000.08 61.6152 1002.45 60.9506 1004.66 59.6215C1006.94 58.2924 1008.75 56.3936 1010.08 53.9252C1011.47 51.4568 1012.16 48.577 1012.16 45.2858C1012.16 41.9313 1011.47 39.0515 1010.08 36.6463C1008.75 34.1779 1006.94 32.2792 1004.66 30.95C1002.45 29.6209 1000.08 28.9563 997.544 28.9563C995.012 28.9563 992.639 29.6209 990.423 30.95C988.208 32.2792 986.404 34.1779 985.012 36.6463C983.619 39.0515 982.923 41.9313 982.923 45.2858C982.923 48.6403 983.619 51.5517 985.012 54.0201C986.404 56.4252 988.208 58.2924 990.423 59.6215C992.639 60.9506 995.012 61.6152 997.544 61.6152Z" fill="white"/>
<path d="M939.714 71.0142C933.765 71.0142 929.271 69.242 926.233 65.6976C923.258 62.0899 921.771 57.2164 921.771 51.077V21.0764H932.024V49.653C932.024 53.7037 932.974 56.7101 934.872 58.6721C936.835 60.6342 939.271 61.6152 942.183 61.6152C944.841 61.6152 947.12 60.9507 949.018 59.6215C950.917 58.2291 952.373 56.4253 953.386 54.21C954.462 51.9948 955 49.6213 955 47.0896V21.0764H965.158V69.4951H955.569V62.9444H955C954.113 64.4634 952.879 65.8242 951.297 67.0267C949.715 68.2293 947.942 69.1787 945.98 69.8749C944.018 70.6344 941.93 71.0142 939.714 71.0142Z" fill="white"/>
<path d="M891.529 71.0141C886.529 71.0141 882.13 69.8749 878.333 67.5964C874.535 65.3178 871.561 62.2481 869.409 58.3873C867.257 54.4632 866.181 50.096 866.181 45.2858C866.181 40.4755 867.257 36.14 869.409 32.2792C871.561 28.355 874.535 25.2537 878.333 22.9752C882.13 20.6966 886.529 19.5574 891.529 19.5574C896.466 19.5574 900.833 20.7283 904.631 23.0701C908.428 25.3486 911.403 28.4183 913.555 32.2792C915.707 36.14 916.783 40.4755 916.783 45.2858C916.783 50.096 915.707 54.4632 913.555 58.3873C911.403 62.2481 908.428 65.3178 904.631 67.5964C900.833 69.8749 896.466 71.0141 891.529 71.0141ZM891.529 61.6152C894.188 61.6152 896.656 60.9823 898.935 59.7164C901.213 58.3873 903.048 56.5202 904.441 54.1151C905.897 51.6467 906.625 48.7036 906.625 45.2858C906.625 41.868 905.897 38.9565 904.441 36.5514C903.048 34.083 901.213 32.2159 898.935 30.95C896.656 29.6209 894.188 28.9563 891.529 28.9563C888.871 28.9563 886.371 29.6209 884.029 30.95C881.751 32.2159 879.883 34.083 878.428 36.5514C877.035 38.9565 876.339 41.868 876.339 45.2858C876.339 48.7036 877.035 51.6467 878.428 54.1151C879.883 56.5202 881.782 58.3873 884.124 59.7164C886.466 60.9823 888.934 61.6152 891.529 61.6152Z" fill="white"/>
<path d="M836.939 69.4952V21.0764H846.623V28.1968H847.193C847.952 26.5512 849.028 25.0955 850.421 23.8296C851.877 22.5638 853.522 21.5511 855.358 20.7916C857.256 20.0321 859.218 19.6523 861.244 19.6523C862.573 19.6523 863.681 19.7473 864.567 19.9372C865.516 20.0637 866.37 20.2853 867.13 20.6017V31.2349C865.927 30.7285 864.693 30.3171 863.427 30.0007C862.225 29.6842 860.959 29.526 859.63 29.526C857.225 29.526 855.073 30.1905 853.174 31.5197C851.339 32.7855 849.883 34.4944 848.807 36.6464C847.731 38.7983 847.193 41.2034 847.193 43.8617V69.4952H836.939Z" fill="white"/>
<path d="M797.122 71.0141C792.248 71.0141 787.659 70.128 783.355 68.3559C779.052 66.5837 775.254 64.1153 771.963 60.9506C768.735 57.7227 766.172 53.9568 764.273 49.6529C762.437 45.2858 761.52 40.5705 761.52 35.5071C761.52 30.4437 762.437 25.76 764.273 21.4561C766.172 17.089 768.735 13.3231 771.963 10.1584C775.254 6.93052 779.052 4.43047 783.355 2.65828C787.659 0.886095 792.248 0 797.122 0C802.312 0 807.09 0.917742 811.457 2.75323C815.888 4.58871 819.59 7.15205 822.565 10.4433L815.35 17.5637C813.894 15.9181 812.217 14.5256 810.318 13.3864C808.483 12.2471 806.457 11.3926 804.242 10.823C802.027 10.1901 799.653 9.87363 797.122 9.87363C793.767 9.87363 790.571 10.4749 787.533 11.6775C784.495 12.88 781.805 14.6206 779.463 16.8991C777.184 19.1143 775.381 21.8043 774.051 24.9689C772.722 28.0702 772.058 31.5829 772.058 35.5071C772.058 39.4312 772.722 42.9756 774.051 46.1402C775.444 49.2415 777.279 51.9315 779.558 54.21C781.9 56.4252 784.59 58.1341 787.628 59.3367C790.666 60.5392 793.862 61.1405 797.216 61.1405C800.318 61.1405 803.198 60.6975 805.856 59.8114C808.577 58.9253 810.951 57.6594 812.976 56.0138C815.002 54.3682 816.647 52.3745 817.913 50.0327C819.179 47.6276 819.97 44.9376 820.287 41.9629H797.027V32.7538H830.065C830.192 33.5134 830.318 34.3995 830.445 35.4121C830.572 36.3615 830.635 37.2793 830.635 38.1654V38.2603C830.635 43.1338 829.78 47.5959 828.072 51.6466C826.426 55.6974 824.116 59.1784 821.141 62.0899C818.166 64.9381 814.622 67.1533 810.508 68.7356C806.457 70.2546 801.995 71.0141 797.122 71.0141Z" fill="white"/>
<path d="M711.209 69.4952V21.0764H720.893V28.1968H721.462C722.222 26.5512 723.298 25.0955 724.69 23.8296C726.146 22.5638 727.791 21.5511 729.627 20.7916C731.526 20.0321 733.488 19.6523 735.513 19.6523C736.842 19.6523 737.95 19.7473 738.836 19.9372C739.785 20.0637 740.64 20.2853 741.399 20.6017V31.2349C740.197 30.7285 738.963 30.3171 737.697 30.0007C736.494 29.6842 735.228 29.526 733.899 29.526C731.494 29.526 729.342 30.1905 727.443 31.5197C725.608 32.7855 724.152 34.4944 723.076 36.6464C722 38.7983 721.462 41.2034 721.462 43.8617V69.4952H711.209Z" fill="white"/>
<path d="M682.797 71.0141C678.05 71.0141 673.809 69.9065 670.075 67.6913C666.341 65.4761 663.398 62.438 661.246 58.5772C659.157 54.7163 658.113 50.3175 658.113 45.3807C658.113 40.7603 659.125 36.4881 661.151 32.564C663.176 28.6398 665.993 25.5069 669.6 23.165C673.271 20.7599 677.48 19.5574 682.227 19.5574C687.227 19.5574 691.468 20.6333 694.949 22.7853C698.493 24.9372 701.183 27.8803 703.019 31.6146C704.854 35.3488 705.772 39.5578 705.772 44.2414C705.772 44.9376 705.74 45.5706 705.677 46.1402C705.677 46.7098 705.645 47.1529 705.582 47.4693H663.904V39.7793H695.614C695.55 38.5768 695.234 37.3109 694.664 35.9818C694.095 34.5893 693.272 33.3235 692.196 32.1842C691.12 31.045 689.759 30.1272 688.113 29.431C686.468 28.6715 684.537 28.2917 682.322 28.2917C679.537 28.2917 677.069 29.0196 674.917 30.4753C672.765 31.8678 671.088 33.8298 669.885 36.3615C668.683 38.8932 668.081 41.8363 668.081 45.1908C668.081 48.8618 668.778 51.9315 670.17 54.3999C671.562 56.8683 673.398 58.7354 675.676 60.0013C677.955 61.2671 680.423 61.9 683.082 61.9C686.31 61.9 688.999 61.1722 691.151 59.7164C693.367 58.1974 695.107 56.3303 696.373 54.1151L704.823 58.1974C702.734 61.995 699.886 65.0963 696.278 67.5014C692.67 69.8432 688.177 71.0141 682.797 71.0141Z" fill="white"/>
<path d="M606.157 90.0019V21.0764H615.841V27.6272H616.41C617.296 26.2347 618.467 24.9372 619.923 23.7347C621.442 22.4688 623.214 21.4561 625.239 20.6966C627.265 19.9371 629.512 19.5574 631.98 19.5574C636.411 19.5574 640.366 20.665 643.847 22.8802C647.328 25.0955 650.082 28.1335 652.107 31.9943C654.196 35.8552 655.24 40.2857 655.24 45.2858C655.24 50.2859 654.196 54.7163 652.107 58.5772C650.082 62.438 647.328 65.4761 643.847 67.6913C640.366 69.9065 636.411 71.0141 631.98 71.0141C628.309 71.0141 625.113 70.1913 622.391 68.5457C619.67 66.9001 617.676 65.0647 616.41 63.0393H615.841L616.41 69.7799V90.0019H606.157ZM630.461 61.6152C632.993 61.6152 635.366 60.9506 637.581 59.6215C639.86 58.2924 641.664 56.3936 642.993 53.9252C644.385 51.4568 645.082 48.577 645.082 45.2858C645.082 41.9313 644.385 39.0515 642.993 36.6463C641.664 34.1779 639.86 32.2792 637.581 30.95C635.366 29.6209 632.993 28.9563 630.461 28.9563C627.929 28.9563 625.556 29.6209 623.341 30.95C621.125 32.2792 619.322 34.1779 617.929 36.6463C616.537 39.0515 615.841 41.9313 615.841 45.2858C615.841 48.6403 616.537 51.5517 617.929 54.0201C619.322 56.4252 621.125 58.2924 623.341 59.6215C625.556 60.9506 627.929 61.6152 630.461 61.6152Z" fill="white"/>
<path d="M575.535 71.0141C570.535 71.0141 566.136 69.8749 562.339 67.5964C558.541 65.3178 555.567 62.2481 553.415 58.3873C551.263 54.4632 550.187 50.096 550.187 45.2858C550.187 40.4755 551.263 36.14 553.415 32.2792C555.567 28.355 558.541 25.2537 562.339 22.9752C566.136 20.6966 570.535 19.5574 575.535 19.5574C580.472 19.5574 584.839 20.7283 588.637 23.0701C592.434 25.3486 595.409 28.4183 597.561 32.2792C599.713 36.14 600.789 40.4755 600.789 45.2858C600.789 50.096 599.713 54.4632 597.561 58.3873C595.409 62.2481 592.434 65.3178 588.637 67.5964C584.839 69.8749 580.472 71.0141 575.535 71.0141ZM575.535 61.6152C578.194 61.6152 580.662 60.9823 582.941 59.7164C585.219 58.3873 587.055 56.5202 588.447 54.1151C589.903 51.6467 590.631 48.7036 590.631 45.2858C590.631 41.868 589.903 38.9565 588.447 36.5514C587.055 34.083 585.219 32.2159 582.941 30.95C580.662 29.6209 578.194 28.9563 575.535 28.9563C572.877 28.9563 570.377 29.6209 568.035 30.95C565.757 32.2159 563.89 34.083 562.434 36.5514C561.041 38.9565 560.345 41.868 560.345 45.2858C560.345 48.7036 561.041 51.6467 562.434 54.1151C563.89 56.5202 565.788 58.3873 568.13 59.7164C570.472 60.9823 572.94 61.6152 575.535 61.6152Z" fill="white"/>
<path d="M534.389 69.4951V1.51904H544.643V69.4951H534.389Z" fill="white"/>
<path d="M505.977 71.0141C501.23 71.0141 496.99 69.9065 493.255 67.6913C489.521 65.4761 486.578 62.438 484.426 58.5772C482.338 54.7163 481.293 50.3175 481.293 45.3807C481.293 40.7603 482.306 36.4881 484.331 32.564C486.357 28.6398 489.173 25.5069 492.781 23.165C496.452 20.7599 500.661 19.5574 505.408 19.5574C510.408 19.5574 514.648 20.6333 518.129 22.7853C521.674 24.9372 524.364 27.8803 526.199 31.6146C528.035 35.3488 528.952 39.5578 528.952 44.2414C528.952 44.9376 528.921 45.5706 528.858 46.1402C528.858 46.7098 528.826 47.1529 528.763 47.4693H487.084V39.7793H518.794C518.731 38.5768 518.414 37.3109 517.845 35.9818C517.275 34.5893 516.452 33.3235 515.376 32.1842C514.3 31.045 512.939 30.1272 511.294 29.431C509.648 28.6715 507.718 28.2917 505.503 28.2917C502.718 28.2917 500.249 29.0196 498.097 30.4753C495.945 31.8678 494.268 33.8298 493.066 36.3615C491.863 38.8932 491.262 41.8363 491.262 45.1908C491.262 48.8618 491.958 51.9315 493.35 54.3999C494.743 56.8683 496.578 58.7354 498.857 60.0013C501.135 61.2671 503.604 61.9 506.262 61.9C509.49 61.9 512.18 61.1722 514.332 59.7164C516.547 58.1974 518.288 56.3303 519.553 54.1151L528.003 58.1974C525.914 61.995 523.066 65.0963 519.459 67.5014C515.851 69.8432 511.357 71.0141 505.977 71.0141Z" fill="white"/>
<path d="M452.3 69.4951L432.268 21.0764H443.66L457.237 56.2987H457.711L471.572 21.0764H482.775L462.553 69.4951H452.3Z" fill="white"/>
<path d="M410.568 71.0141C405.821 71.0141 401.58 69.9065 397.846 67.6913C394.112 65.4761 391.168 62.438 389.017 58.5772C386.928 54.7163 385.884 50.3175 385.884 45.3807C385.884 40.7603 386.896 36.4881 388.922 32.564C390.947 28.6398 393.763 25.5069 397.371 23.165C401.042 20.7599 405.251 19.5574 409.998 19.5574C414.998 19.5574 419.239 20.6333 422.72 22.7853C426.264 24.9372 428.954 27.8803 430.79 31.6146C432.625 35.3488 433.543 39.5578 433.543 44.2414C433.543 44.9376 433.511 45.5706 433.448 46.1402C433.448 46.7098 433.416 47.1529 433.353 47.4693H391.675V39.7793H423.384C423.321 38.5768 423.005 37.3109 422.435 35.9818C421.865 34.5893 421.043 33.3235 419.967 32.1842C418.891 31.045 417.53 30.1272 415.884 29.431C414.239 28.6715 412.308 28.2917 410.093 28.2917C407.308 28.2917 404.84 29.0196 402.688 30.4753C400.536 31.8678 398.859 33.8298 397.656 36.3615C396.453 38.8932 395.852 41.8363 395.852 45.1908C395.852 48.8618 396.548 51.9315 397.941 54.3999C399.333 56.8683 401.169 58.7354 403.447 60.0013C405.726 61.2671 408.194 61.9 410.852 61.9C414.08 61.9 416.77 61.1722 418.922 59.7164C421.137 58.1974 422.878 56.3303 424.144 54.1151L432.593 58.1974C430.505 61.995 427.657 65.0963 424.049 67.5014C420.441 69.8432 415.947 71.0141 410.568 71.0141Z" fill="white"/>
<path d="M325.809 69.4951V1.51904H347.55C354.702 1.51904 360.841 2.97477 365.968 5.88622C371.158 8.73438 375.145 12.7218 377.93 17.8485C380.778 22.9752 382.202 28.8614 382.202 35.5071C382.202 42.1528 380.778 48.039 377.93 53.1657C375.145 58.2924 371.158 62.3114 365.968 65.2229C360.841 68.0711 354.702 69.4951 347.55 69.4951H325.809ZM336.252 59.6215H347.265C352.392 59.6215 356.79 58.6721 360.461 56.7734C364.132 54.8113 366.917 52.0264 368.816 48.4188C370.715 44.8111 371.664 40.5072 371.664 35.5071C371.664 30.507 370.715 26.2031 368.816 22.5954C366.917 18.9878 364.132 16.2345 360.461 14.3358C356.79 12.3737 352.392 11.3927 347.265 11.3927H336.252V59.6215Z" fill="white"/>
<path d="M277.327 71.0141C272.58 71.0141 268.34 69.9065 264.605 67.6913C260.871 65.4761 257.928 62.438 255.776 58.5772C253.687 54.7163 252.643 50.3175 252.643 45.3807C252.643 40.7603 253.656 36.4881 255.681 32.564C257.706 28.6398 260.523 25.5069 264.131 23.165C267.802 20.7599 272.011 19.5574 276.757 19.5574C281.758 19.5574 285.998 20.6333 289.479 22.7853C293.024 24.9372 295.714 27.8803 297.549 31.6146C299.385 35.3488 300.302 39.5578 300.302 44.2414C300.302 44.9376 300.271 45.5706 300.207 46.1402C300.207 46.7098 300.176 47.1529 300.112 47.4693H258.434V39.7793H290.144C290.081 38.5768 289.764 37.3109 289.194 35.9818C288.625 34.5893 287.802 33.3235 286.726 32.1842C285.65 31.045 284.289 30.1272 282.644 29.431C280.998 28.6715 279.068 28.2917 276.852 28.2917C274.068 28.2917 271.599 29.0196 269.447 30.4753C267.295 31.8678 265.618 33.8298 264.415 36.3615C263.213 38.8932 262.612 41.8363 262.612 45.1908C262.612 48.8618 263.308 51.9315 264.7 54.3999C266.093 56.8683 267.928 58.7354 270.207 60.0013C272.485 61.2671 274.954 61.9 277.612 61.9C280.84 61.9 283.53 61.1722 285.682 59.7164C287.897 58.1974 289.638 56.3303 290.903 54.1151L299.353 58.1974C297.264 61.995 294.416 65.0963 290.808 67.5014C287.201 69.8432 282.707 71.0141 277.327 71.0141Z" fill="white"/>
<path d="M236.845 69.4951V1.51904H247.099V69.4951H236.845Z" fill="white"/>
<path d="M204.718 91.5209C200.478 91.5209 196.807 90.8247 193.705 89.4323C190.667 88.1031 188.199 86.3626 186.3 84.2106C184.401 82.122 183.041 79.97 182.218 77.7548L191.712 73.7674C192.724 76.2991 194.338 78.3561 196.554 79.9384C198.832 81.584 201.554 82.4068 204.718 82.4068C209.212 82.4068 212.725 81.0776 215.257 78.4194C217.788 75.7611 219.054 71.9952 219.054 67.1217V62.4697H218.484C216.965 64.6849 214.877 66.4887 212.218 67.8812C209.56 69.2736 206.491 69.9698 203.009 69.9698C198.895 69.9698 195.098 68.9255 191.617 66.8368C188.199 64.7482 185.446 61.8367 183.357 58.1025C181.332 54.3049 180.319 49.8745 180.319 44.8111C180.319 39.6844 181.332 35.2539 183.357 31.5196C185.446 27.7221 188.199 24.779 191.617 22.6903C195.098 20.6017 198.895 19.5574 203.009 19.5574C206.491 19.5574 209.56 20.2536 212.218 21.646C214.877 22.9752 216.965 24.8106 218.484 27.1525H219.054V21.0764H228.833V66.9318C228.833 72.1851 227.788 76.6472 225.7 80.3181C223.674 83.9891 220.858 86.774 217.25 88.6727C213.643 90.5715 209.465 91.5209 204.718 91.5209ZM204.813 60.6658C207.345 60.6658 209.687 60.0645 211.839 58.862C214.054 57.5961 215.795 55.7923 217.06 53.4505C218.39 51.0454 219.054 48.1656 219.054 44.8111C219.054 41.2667 218.39 38.3236 217.06 35.9818C215.795 33.6399 214.054 31.8678 211.839 30.6652C209.687 29.4626 207.345 28.8614 204.813 28.8614C202.282 28.8614 199.908 29.4626 197.693 30.6652C195.541 31.8678 193.8 33.6716 192.471 36.0767C191.142 38.4185 190.478 41.33 190.478 44.8111C190.478 48.2289 191.142 51.1403 192.471 53.5454C193.8 55.8872 195.541 57.6594 197.693 58.862C199.908 60.0645 202.282 60.6658 204.813 60.6658Z" fill="white"/>
<path d="M152.261 71.0141C147.261 71.0141 142.862 69.8749 139.064 67.5964C135.267 65.3178 132.292 62.2481 130.14 58.3873C127.988 54.4632 126.912 50.096 126.912 45.2858C126.912 40.4755 127.988 36.14 130.14 32.2792C132.292 28.355 135.267 25.2537 139.064 22.9752C142.862 20.6966 147.261 19.5574 152.261 19.5574C157.198 19.5574 161.565 20.7283 165.363 23.0701C169.16 25.3486 172.135 28.4183 174.287 32.2792C176.439 36.14 177.515 40.4755 177.515 45.2858C177.515 50.096 176.439 54.4632 174.287 58.3873C172.135 62.2481 169.16 65.3178 165.363 67.5964C161.565 69.8749 157.198 71.0141 152.261 71.0141ZM152.261 61.6152C154.919 61.6152 157.388 60.9823 159.666 59.7164C161.945 58.3873 163.78 56.5202 165.173 54.1151C166.628 51.6467 167.356 48.7036 167.356 45.2858C167.356 41.868 166.628 38.9565 165.173 36.5514C163.78 34.083 161.945 32.2159 159.666 30.95C157.388 29.6209 154.919 28.9563 152.261 28.9563C149.603 28.9563 147.103 29.6209 144.761 30.95C142.482 32.2159 140.615 34.083 139.159 36.5514C137.767 38.9565 137.071 41.868 137.071 45.2858C137.071 48.7036 137.767 51.6467 139.159 54.1151C140.615 56.5202 142.514 58.3873 144.856 59.7164C147.198 60.9823 149.666 61.6152 152.261 61.6152Z" fill="white"/>
<path d="M98.8542 71.0141C93.8541 71.0141 89.4553 69.8749 85.6578 67.5964C81.8602 65.3178 78.8855 62.2481 76.7335 58.3873C74.5816 54.4632 73.5056 50.096 73.5056 45.2858C73.5056 40.4755 74.5816 36.14 76.7335 32.2792C78.8855 28.355 81.8602 25.2537 85.6578 22.9752C89.4553 20.6966 93.8541 19.5574 98.8542 19.5574C103.791 19.5574 108.158 20.7283 111.956 23.0701C115.753 25.3486 118.728 28.4183 120.88 32.2792C123.032 36.14 124.108 40.4755 124.108 45.2858C124.108 50.096 123.032 54.4632 120.88 58.3873C118.728 62.2481 115.753 65.3178 111.956 67.5964C108.158 69.8749 103.791 71.0141 98.8542 71.0141ZM98.8542 61.6152C101.513 61.6152 103.981 60.9823 106.259 59.7164C108.538 58.3873 110.373 56.5202 111.766 54.1151C113.222 51.6467 113.949 48.7036 113.949 45.2858C113.949 41.868 113.222 38.9565 111.766 36.5514C110.373 34.083 108.538 32.2159 106.259 30.95C103.981 29.6209 101.513 28.9563 98.8542 28.9563C96.196 28.9563 93.6959 29.6209 91.3541 30.95C89.0756 32.2159 87.2084 34.083 85.7527 36.5514C84.3603 38.9565 83.6641 41.868 83.6641 45.2858C83.6641 48.7036 84.3603 51.6467 85.7527 54.1151C87.2084 56.5202 89.1072 58.3873 91.449 59.7164C93.7908 60.9823 96.2593 61.6152 98.8542 61.6152Z" fill="white"/>
<path d="M35.602 71.0141C30.7285 71.0141 26.1398 70.128 21.8359 68.3559C17.532 66.5837 13.7345 64.1153 10.4433 60.9506C7.21534 57.7227 4.652 53.9568 2.75322 49.6529C0.917741 45.2858 0 40.5705 0 35.5071C0 30.4437 0.917741 25.76 2.75322 21.4561C4.652 17.089 7.21534 13.3231 10.4433 10.1584C13.7345 6.93052 17.532 4.43047 21.8359 2.65828C26.1398 0.886095 30.7285 0 35.602 0C40.792 0 45.5706 0.917742 49.9378 2.75323C54.3682 4.58871 58.0708 7.15205 61.0456 10.4433L53.8302 17.5637C52.3745 15.9181 50.6973 14.5256 48.7985 13.3864C46.963 12.2471 44.9376 11.3926 42.7224 10.823C40.5072 10.1901 38.1337 9.87363 35.602 9.87363C32.2475 9.87363 29.0512 10.4749 26.0132 11.6775C22.9752 12.88 20.2852 14.6206 17.9434 16.8991C15.6649 19.1143 13.861 21.8043 12.5319 24.9689C11.2028 28.0702 10.5382 31.5829 10.5382 35.5071C10.5382 39.4312 11.2028 42.9756 12.5319 46.1402C13.9243 49.2415 15.7598 51.9315 18.0383 54.21C20.3802 56.4252 23.0701 58.1341 26.1081 59.3367C29.1462 60.5392 32.3424 61.1405 35.6969 61.1405C38.7983 61.1405 41.6781 60.6975 44.3364 59.8114C47.0579 58.9253 49.4314 57.6594 51.4568 56.0138C53.4821 54.3682 55.1277 52.3745 56.3936 50.0327C57.6594 47.6276 58.4506 44.9376 58.767 41.9629H35.5071V32.7538H68.5457C68.6723 33.5134 68.7989 34.3995 68.9255 35.4121C69.0521 36.3615 69.1154 37.2793 69.1154 38.1654V38.2603C69.1154 43.1338 68.2609 47.5959 66.552 51.6466C64.9064 55.6974 62.5962 59.1784 59.6215 62.0899C56.6467 64.9381 53.1024 67.1533 48.9884 68.7356C44.9376 70.2546 40.4755 71.0141 35.602 71.0141Z" fill="white"/>
</svg>
